# xmcd
#
# Track frame offsets:
#	150
#	2100
#	5039
#	8123
#	12232
#	16342
#	21285
#	25809
#	31490
#	37015
#	41250
#	45485
#	49328
#	53165
#	57220
#	61302
#	63958
#	66616
#	70511
#	74404
#	78304
#	82204
#	86946
#	91536
#	94520
#	97504
#	100432
#	103443
#
# Disc length: 1403 seconds
#
# Revision: 1
# Processed by: cddbd v1.5.2PL0 Copyright (c) Steve Scherf et al.
# Submitted via: EasyCDDAExtractor 16.0.8.1
#
DISCID=6a05791c
DTITLE=Various Artist - 프뢰벨 전래동요 말놀이
DYEAR=1900
DGENRE=Country
TTITLE0=인사노래(시작)
TTITLE1=무엇일 될까(말놀이)
TTITLE2=무엇이 될까(동요)
TTITLE3=눈,눈,누구눈(말놀이)
TTITLE4=눈,눈,누구눈(동요)
TTITLE5=큰 입 쩍쩍 벌려라(말놀이)
TTITLE6=큰 입 쩍쩍 벌려라(동요)
TTITLE7=길을 걸어가다가(말놀이)
TTITLE8=길을 걸어가다가(동요)
TTITLE9=사과 줄게, 빨강 줄래(말놀이)
TTITLE10=사과 줄게, 빨강 줄래(동요)
TTITLE11=꼭꼭 숨어라(말놀이)
TTITLE12=꼭꼭 숨어라(동요)
TTITLE13=우리 집에 왜 왔니(말놀이)
TTITLE14=우리 집에 왜 왔니(동요)
TTITLE15=꼬마야, 꼬마야(말놀이)
TTITLE16=꼬마야, 꼬마야(동요)
TTITLE17=별 하나(말놀이)
TTITLE18=별 하나(동요)
TTITLE19=앞에 가는 고릴라(말놀이)
TTITLE20=앞에 가는 고릴라(동요)
TTITLE21=똑똑똑, 누구십니까(말놀이)
TTITLE22=똑똑똑, 누구십니까(동요)
TTITLE23=해야,해야, 나와라(말놀이)
TTITLE24=해야,해야, 나와라(동요)
TTITLE25=어디까지 갔니(말놀이)
TTITLE26=어디까지 갔니(동요)
TTITLE27=인사노래(마무리)
EXTD=
EXTT0=
EXTT1=
EXTT2=
EXTT3=
EXTT4=
EXTT5=
EXTT6=
EXTT7=
EXTT8=
EXTT9=
EXTT10=
EXTT11=
EXTT12=
EXTT13=
EXTT14=
EXTT15=
EXTT16=
EXTT17=
EXTT18=
EXTT19=
EXTT20=
EXTT21=
EXTT22=
EXTT23=
EXTT24=
EXTT25=
EXTT26=
EXTT27=
PLAYORDER=
